<svg width="32" height="53" viewBox="0 0 32 53" fill="none" xmlns="http://www.w3.org/2000/svg">
<path d="M15.5 27C21.8513 27 27 22.0751 27 16C27 9.92487 21.8513 5 15.5 5C9.14874 5 4 9.92487 4 16C4 22.0751 9.14874 27 15.5 27Z" fill="white"/>
<path d="M16 0C11.7566 0 7.68688 1.65899 4.68629 4.61201C1.68571 7.56503 0 11.5702 0 15.7464C0 24.4429 16 53 16 53C16 53 32 24.4429 32 15.7464C32 11.5702 30.3143 7.56503 27.3137 4.61201C24.3131 1.65899 20.2435 0 16 0V0ZM16 23.4275C14.5335 23.4275 13.1 22.9996 11.8806 22.1978C10.6613 21.3959 9.71097 20.2563 9.14978 18.9229C8.58858 17.5895 8.44173 16.1223 8.72782 14.7068C9.01392 13.2913 9.7201 11.9911 10.7571 10.9706C11.794 9.95006 13.1152 9.25507 14.5535 8.97351C15.9918 8.69195 17.4826 8.83646 18.8375 9.38876C20.1923 9.94106 21.3503 10.8764 22.165 12.0764C22.9798 13.2764 23.4146 14.6872 23.4146 16.1304C23.4146 18.0657 22.6335 19.9218 21.2429 21.2903C19.8524 22.6587 17.9665 23.4275 16 23.4275V23.4275Z" fill="#FF6584"/>
</svg>
